<svg width="670" height="426" viewBox="0 0 670 426" fill="none" xmlns="http://www.w3.org/2000/svg">
<path fill-rule="evenodd" clip-rule="evenodd" d="M131 67.5L164.25 1H252.75L286 67.5L252.75 134H164.25L131 67.5Z" fill="#00B050" stroke="#00B050" stroke-width="1.33333" stroke-miterlimit="8"/>
<path fill-rule="evenodd" clip-rule="evenodd" d="M1 140.5L34.25 74H121.75L155 140.5L121.75 207H34.25L1 140.5Z" fill="#0070C0" stroke="#0070C0" stroke-width="1.33333" stroke-miterlimit="8"/>
<path fill-rule="evenodd" clip-rule="evenodd" d="M1 285.5L34.25 219H121.75L155 285.5L121.75 352H34.25L1 285.5Z" fill="#7030A0" stroke="#7030A0" stroke-width="1.33333" stroke-miterlimit="8"/>
<path fill-rule="evenodd" clip-rule="evenodd" d="M131 358.5L164.25 292H252.75L286 358.5L252.75 425H164.25L131 358.5Z" fill="#122C34" stroke="#122C34" stroke-width="1.33333" stroke-miterlimit="8"/>
<path d="M176.538 194.405C176.538 197.119 178.485 198.476 182.379 198.476C186.313 198.476 188.279 197.257 188.279 194.818C188.279 193.52 187.611 192.458 186.273 191.632C184.936 190.806 183.304 190.118 181.376 189.567C179.488 189.016 177.581 188.387 175.653 187.679C173.765 186.932 172.153 185.791 170.815 184.257C169.478 182.684 168.809 180.737 168.809 178.416C168.809 168.543 175.162 163.607 187.866 163.607C192.508 163.607 196.008 164.492 198.368 166.262C200.768 167.993 201.967 170.412 201.967 173.519C201.967 174.66 201.81 175.761 201.495 176.823C201.22 177.846 200.925 178.573 200.61 179.006L200.138 179.714H189.695C190.561 178.809 190.993 177.669 190.993 176.292C190.993 173.735 189.322 172.457 185.978 172.457C181.77 172.457 179.665 173.794 179.665 176.469C179.665 177.806 180.334 178.868 181.671 179.655C183.009 180.442 184.621 181.071 186.509 181.543C188.437 181.976 190.364 182.526 192.291 183.195C194.219 183.864 195.851 184.985 197.188 186.558C198.526 188.092 199.194 190.098 199.194 192.576C199.194 197.571 197.7 201.288 194.71 203.727C191.721 206.126 187.119 207.326 180.904 207.326C174.69 207.326 170.442 206.225 168.16 204.022C166.469 202.37 165.623 200.089 165.623 197.178C165.623 196.077 165.741 194.877 165.977 193.579L166.154 192.635H176.774L176.656 193.343C176.578 193.736 176.538 194.09 176.538 194.405ZM218.454 207.326C212.83 207.326 208.936 206.107 206.772 203.668C205.278 201.937 204.53 199.518 204.53 196.411C204.53 195.074 204.668 193.638 204.943 192.104L207.362 178.534C209.132 168.583 215.524 163.607 226.537 163.607C231.1 163.607 234.561 164.59 236.921 166.557C239.281 168.484 240.461 171.139 240.461 174.522C240.461 176.095 240.225 177.669 239.753 179.242C239.321 180.776 238.888 181.917 238.455 182.664L237.806 183.844H227.363C228.661 182.349 229.31 180.225 229.31 177.472C229.31 176.017 228.937 174.876 228.189 174.05C227.442 173.185 226.341 172.752 224.885 172.752C220.913 172.752 218.553 174.955 217.805 179.36L215.74 191.278C215.544 192.301 215.445 193.304 215.445 194.287C215.445 196.883 216.999 198.181 220.106 198.181C223.843 198.181 226.085 196.077 226.832 191.868H237.452L237.157 193.579C235.584 202.744 229.35 207.326 218.454 207.326ZM259.84 164.02L252.406 206.5H241.727L249.22 164.02H259.84ZM290.359 206.5H260.741L268.234 164.02H297.852L296.2 173.224H277.202L275.845 181.189H291.539L289.887 190.393H274.193L273.013 197.296H292.011L290.359 206.5ZM337.393 164.02L329.959 206.5H319.28L311.846 183.254L307.834 206.5H297.155L304.648 164.02H315.622L322.938 185.732L326.773 164.02H337.393ZM353.221 207.326C347.596 207.326 343.702 206.107 341.539 203.668C340.044 201.937 339.297 199.518 339.297 196.411C339.297 195.074 339.435 193.638 339.71 192.104L342.129 178.534C343.899 168.583 350.291 163.607 361.304 163.607C365.867 163.607 369.328 164.59 371.688 166.557C374.048 168.484 375.228 171.139 375.228 174.522C375.228 176.095 374.992 177.669 374.52 179.242C374.087 180.776 373.655 181.917 373.222 182.664L372.573 183.844H362.13C363.428 182.349 364.077 180.225 364.077 177.472C364.077 176.017 363.703 174.876 362.956 174.05C362.209 173.185 361.107 172.752 359.652 172.752C355.679 172.752 353.319 174.955 352.572 179.36L350.507 191.278C350.31 192.301 350.212 193.304 350.212 194.287C350.212 196.883 351.766 198.181 354.873 198.181C358.61 198.181 360.852 196.077 361.599 191.868H372.219L371.924 193.579C370.351 202.744 364.116 207.326 353.221 207.326ZM406.112 206.5H376.494L383.987 164.02H413.605L411.953 173.224H392.955L391.598 181.189H407.292L405.64 190.393H389.946L388.766 197.296H407.764L406.112 206.5ZM445.667 164.02L451.98 184.375L465.55 164.02H476.701L469.208 206.5H458.529L462.777 182.546L453.691 196.824H445.962L441.95 182.546L437.702 206.5H427.082L434.575 164.02H445.667ZM498.616 206.5L498.97 197.237H489.117L486.226 206.5H474.957L490.12 164.02H509.59L509.826 206.5H498.616ZM496.197 174.345L491.536 189.331H499.265L499.914 174.345H496.197ZM526.275 194.405C526.275 197.119 528.222 198.476 532.116 198.476C536.049 198.476 538.016 197.257 538.016 194.818C538.016 193.52 537.347 192.458 536.01 191.632C534.672 190.806 533.04 190.118 531.113 189.567C529.225 189.016 527.317 188.387 525.39 187.679C523.502 186.932 521.889 185.791 520.552 184.257C519.214 182.684 518.546 180.737 518.546 178.416C518.546 168.543 524.898 163.607 537.603 163.607C542.244 163.607 545.745 164.492 548.105 166.262C550.504 167.993 551.704 170.412 551.704 173.519C551.704 174.66 551.546 175.761 551.232 176.823C550.956 177.846 550.661 178.573 550.347 179.006L549.875 179.714H539.432C540.297 178.809 540.73 177.669 540.73 176.292C540.73 173.735 539.058 172.457 535.715 172.457C531.506 172.457 529.402 173.794 529.402 176.469C529.402 177.806 530.07 178.868 531.408 179.655C532.745 180.442 534.358 181.071 536.246 181.543C538.173 181.976 540.1 182.526 542.028 183.195C543.955 183.864 545.587 184.985 546.925 186.558C548.262 188.092 548.931 190.098 548.931 192.576C548.931 197.571 547.436 201.288 544.447 203.727C541.457 206.126 536.855 207.326 530.641 207.326C524.426 207.326 520.178 206.225 517.897 204.022C516.205 202.37 515.36 200.089 515.36 197.178C515.36 196.077 515.478 194.877 515.714 193.579L515.891 192.635H526.511L526.393 193.343C526.314 193.736 526.275 194.09 526.275 194.405ZM595.331 173.224H580.817L574.976 206.5H564.297L570.138 173.224H555.565L557.217 164.02H596.983L595.331 173.224ZM623.963 206.5H594.345L601.838 164.02H631.456L629.804 173.224H610.806L609.449 181.189H625.143L623.491 190.393H607.797L606.617 197.296H625.615L623.963 206.5ZM655.362 164.02C659.846 164.02 663.032 165.003 664.92 166.97C666.336 168.465 667.044 170.353 667.044 172.634C667.044 173.421 666.965 174.247 666.808 175.112L665.982 179.714C665.51 182.271 664.684 184.336 663.504 185.909C662.363 187.482 661.085 188.603 659.669 189.272L665.038 206.5H653.12L648.164 190.629H644.506L642.087 206.5H630.759L638.252 164.02H655.362ZM651.645 173.224H647.22L645.686 183.49H649.816C651.9 183.49 653.395 182.998 654.3 182.015C655.204 180.992 655.657 179.655 655.657 178.003C655.657 174.817 654.319 173.224 651.645 173.224Z" fill="black"/>
<path d="M382.543 226.773V228.613H375.148V226.773H382.543ZM375.441 219.438V236.5H373.285V219.438H375.441ZM384.453 219.438V236.5H382.297V219.438H384.453ZM399.266 226.492V229.457C399.266 230.66 399.133 231.719 398.867 232.633C398.609 233.539 398.23 234.297 397.73 234.906C397.23 235.516 396.629 235.973 395.926 236.277C395.223 236.582 394.43 236.734 393.547 236.734C392.695 236.734 391.918 236.582 391.215 236.277C390.512 235.973 389.906 235.516 389.398 234.906C388.891 234.297 388.496 233.539 388.215 232.633C387.941 231.719 387.805 230.66 387.805 229.457V226.492C387.805 225.289 387.941 224.234 388.215 223.328C388.488 222.414 388.879 221.652 389.387 221.043C389.895 220.434 390.5 219.977 391.203 219.672C391.906 219.359 392.684 219.203 393.535 219.203C394.418 219.203 395.211 219.359 395.914 219.672C396.625 219.977 397.227 220.434 397.719 221.043C398.219 221.652 398.602 222.414 398.867 223.328C399.133 224.234 399.266 225.289 399.266 226.492ZM397.133 229.457V226.469C397.133 225.531 397.055 224.727 396.898 224.055C396.742 223.375 396.512 222.82 396.207 222.391C395.902 221.961 395.527 221.645 395.082 221.441C394.637 221.23 394.121 221.125 393.535 221.125C392.98 221.125 392.48 221.23 392.035 221.441C391.598 221.645 391.223 221.961 390.91 222.391C390.598 222.82 390.355 223.375 390.184 224.055C390.02 224.727 389.938 225.531 389.938 226.469V229.457C389.938 230.402 390.02 231.215 390.184 231.895C390.355 232.566 390.598 233.121 390.91 233.559C391.23 233.988 391.613 234.309 392.059 234.52C392.504 234.723 393 234.824 393.547 234.824C394.133 234.824 394.648 234.723 395.094 234.52C395.547 234.309 395.922 233.988 396.219 233.559C396.523 233.121 396.75 232.566 396.898 231.895C397.055 231.215 397.133 230.402 397.133 229.457ZM403.285 219.438H405.371L409.836 233.348L414.289 219.438H416.375L410.645 236.5H409.004L403.285 219.438ZM402.605 219.438H404.434L404.75 229.844V236.5H402.605V219.438ZM415.215 219.438H417.043V236.5H414.898V229.844L415.215 219.438ZM429.922 234.66V236.5H422.516V234.66H429.922ZM422.902 219.438V236.5H420.746V219.438H422.902ZM428.926 226.773V228.613H422.516V226.773H428.926ZM429.805 219.438V221.289H422.516V219.438H429.805ZM449.281 226.492V229.457C449.281 230.66 449.148 231.719 448.883 232.633C448.625 233.539 448.246 234.297 447.746 234.906C447.246 235.516 446.645 235.973 445.941 236.277C445.238 236.582 444.445 236.734 443.562 236.734C442.711 236.734 441.934 236.582 441.23 236.277C440.527 235.973 439.922 235.516 439.414 234.906C438.906 234.297 438.512 233.539 438.23 232.633C437.957 231.719 437.82 230.66 437.82 229.457V226.492C437.82 225.289 437.957 224.234 438.23 223.328C438.504 222.414 438.895 221.652 439.402 221.043C439.91 220.434 440.516 219.977 441.219 219.672C441.922 219.359 442.699 219.203 443.551 219.203C444.434 219.203 445.227 219.359 445.93 219.672C446.641 219.977 447.242 220.434 447.734 221.043C448.234 221.652 448.617 222.414 448.883 223.328C449.148 224.234 449.281 225.289 449.281 226.492ZM447.148 229.457V226.469C447.148 225.531 447.07 224.727 446.914 224.055C446.758 223.375 446.527 222.82 446.223 222.391C445.918 221.961 445.543 221.645 445.098 221.441C444.652 221.23 444.137 221.125 443.551 221.125C442.996 221.125 442.496 221.23 442.051 221.441C441.613 221.645 441.238 221.961 440.926 222.391C440.613 222.82 440.371 223.375 440.199 224.055C440.035 224.727 439.953 225.531 439.953 226.469V229.457C439.953 230.402 440.035 231.215 440.199 231.895C440.371 232.566 440.613 233.121 440.926 233.559C441.246 233.988 441.629 234.309 442.074 234.52C442.52 234.723 443.016 234.824 443.562 234.824C444.148 234.824 444.664 234.723 445.109 234.52C445.562 234.309 445.938 233.988 446.234 233.559C446.539 233.121 446.766 232.566 446.914 231.895C447.07 231.215 447.148 230.402 447.148 229.457ZM454.777 219.438V236.5H452.621V219.438H454.777ZM460.531 227.113V228.965H454.367V227.113H460.531ZM461.504 219.438V221.289H454.367V219.438H461.504ZM477.148 232.188C477.148 231.789 477.102 231.438 477.008 231.133C476.914 230.82 476.75 230.539 476.516 230.289C476.281 230.039 475.953 229.801 475.531 229.574C475.109 229.348 474.574 229.117 473.926 228.883C473.223 228.633 472.586 228.355 472.016 228.051C471.445 227.738 470.957 227.383 470.551 226.984C470.152 226.586 469.844 226.129 469.625 225.613C469.406 225.098 469.297 224.508 469.297 223.844C469.297 223.18 469.41 222.566 469.637 222.004C469.871 221.441 470.199 220.953 470.621 220.539C471.051 220.117 471.566 219.789 472.168 219.555C472.77 219.32 473.441 219.203 474.184 219.203C475.293 219.203 476.227 219.449 476.984 219.941C477.75 220.426 478.328 221.062 478.719 221.852C479.109 222.633 479.305 223.469 479.305 224.359H477.148C477.148 223.719 477.043 223.152 476.832 222.66C476.629 222.16 476.309 221.77 475.871 221.488C475.441 221.199 474.879 221.055 474.184 221.055C473.559 221.055 473.043 221.176 472.637 221.418C472.238 221.66 471.941 221.988 471.746 222.402C471.559 222.816 471.465 223.289 471.465 223.82C471.465 224.18 471.527 224.508 471.652 224.805C471.777 225.094 471.969 225.363 472.227 225.613C472.492 225.863 472.82 226.094 473.211 226.305C473.609 226.516 474.078 226.719 474.617 226.914C475.453 227.188 476.168 227.492 476.762 227.828C477.355 228.164 477.84 228.543 478.215 228.965C478.59 229.379 478.863 229.852 479.035 230.383C479.215 230.906 479.305 231.5 479.305 232.164C479.305 232.859 479.188 233.488 478.953 234.051C478.727 234.613 478.395 235.094 477.957 235.492C477.52 235.891 476.992 236.199 476.375 236.418C475.758 236.629 475.062 236.734 474.289 236.734C473.617 236.734 472.957 236.625 472.309 236.406C471.668 236.188 471.086 235.859 470.562 235.422C470.039 234.984 469.621 234.445 469.309 233.805C468.996 233.156 468.84 232.406 468.84 231.555H470.996C470.996 232.141 471.082 232.645 471.254 233.066C471.426 233.48 471.664 233.824 471.969 234.098C472.273 234.371 472.621 234.574 473.012 234.707C473.41 234.832 473.836 234.895 474.289 234.895C474.914 234.895 475.438 234.785 475.859 234.566C476.289 234.348 476.609 234.035 476.82 233.629C477.039 233.223 477.148 232.742 477.148 232.188ZM490.672 231.074H492.828C492.773 232.246 492.535 233.258 492.113 234.109C491.699 234.953 491.094 235.602 490.297 236.055C489.508 236.508 488.52 236.734 487.332 236.734C486.48 236.734 485.711 236.566 485.023 236.23C484.336 235.895 483.746 235.414 483.254 234.789C482.77 234.156 482.398 233.398 482.141 232.516C481.883 231.633 481.754 230.641 481.754 229.539V226.387C481.754 225.293 481.883 224.305 482.141 223.422C482.406 222.539 482.785 221.785 483.277 221.16C483.777 220.527 484.383 220.043 485.094 219.707C485.812 219.371 486.625 219.203 487.531 219.203C488.641 219.203 489.578 219.426 490.344 219.871C491.117 220.309 491.711 220.953 492.125 221.805C492.547 222.648 492.781 223.684 492.828 224.91H490.672C490.617 224.012 490.477 223.281 490.25 222.719C490.023 222.148 489.688 221.73 489.242 221.465C488.805 221.191 488.234 221.055 487.531 221.055C486.906 221.055 486.363 221.18 485.902 221.43C485.449 221.68 485.074 222.039 484.777 222.508C484.488 222.969 484.27 223.527 484.121 224.184C483.98 224.832 483.91 225.559 483.91 226.363V229.539C483.91 230.289 483.969 230.988 484.086 231.637C484.211 232.285 484.406 232.855 484.672 233.348C484.945 233.832 485.301 234.211 485.738 234.484C486.176 234.758 486.707 234.895 487.332 234.895C488.121 234.895 488.746 234.766 489.207 234.508C489.668 234.25 490.008 233.84 490.227 233.277C490.453 232.715 490.602 231.98 490.672 231.074ZM497.996 219.438V236.5H495.84V219.438H497.996ZM510.922 234.66V236.5H503.516V234.66H510.922ZM503.902 219.438V236.5H501.746V219.438H503.902ZM509.926 226.773V228.613H503.516V226.773H509.926ZM510.805 219.438V221.289H503.516V219.438H510.805ZM524.832 219.438V236.5H522.664L515.832 223.34V236.5H513.676V219.438H515.832L522.699 232.633V219.438H524.832ZM537.102 231.074H539.258C539.203 232.246 538.965 233.258 538.543 234.109C538.129 234.953 537.523 235.602 536.727 236.055C535.938 236.508 534.949 236.734 533.762 236.734C532.91 236.734 532.141 236.566 531.453 236.23C530.766 235.895 530.176 235.414 529.684 234.789C529.199 234.156 528.828 233.398 528.57 232.516C528.312 231.633 528.184 230.641 528.184 229.539V226.387C528.184 225.293 528.312 224.305 528.57 223.422C528.836 222.539 529.215 221.785 529.707 221.16C530.207 220.527 530.812 220.043 531.523 219.707C532.242 219.371 533.055 219.203 533.961 219.203C535.07 219.203 536.008 219.426 536.773 219.871C537.547 220.309 538.141 220.953 538.555 221.805C538.977 222.648 539.211 223.684 539.258 224.91H537.102C537.047 224.012 536.906 223.281 536.68 222.719C536.453 222.148 536.117 221.73 535.672 221.465C535.234 221.191 534.664 221.055 533.961 221.055C533.336 221.055 532.793 221.18 532.332 221.43C531.879 221.68 531.504 222.039 531.207 222.508C530.918 222.969 530.699 223.527 530.551 224.184C530.41 224.832 530.34 225.559 530.34 226.363V229.539C530.34 230.289 530.398 230.988 530.516 231.637C530.641 232.285 530.836 232.855 531.102 233.348C531.375 233.832 531.73 234.211 532.168 234.484C532.605 234.758 533.137 234.895 533.762 234.895C534.551 234.895 535.176 234.766 535.637 234.508C536.098 234.25 536.438 233.84 536.656 233.277C536.883 232.715 537.031 231.98 537.102 231.074ZM551.352 234.66V236.5H543.945V234.66H551.352ZM544.332 219.438V236.5H542.176V219.438H544.332ZM550.355 226.773V228.613H543.945V226.773H550.355ZM551.234 219.438V221.289H543.945V219.438H551.234ZM564.629 219.438V236.5H562.496V219.438H564.629ZM569.117 219.438V221.289H558.02V219.438H569.117ZM580.812 234.66V236.5H573.406V234.66H580.812ZM573.793 219.438V236.5H571.637V219.438H573.793ZM579.816 226.773V228.613H573.406V226.773H579.816ZM580.695 219.438V221.289H573.406V219.438H580.695ZM589.098 220.949L584.434 236.5H582.23L587.727 219.438H589.109L589.098 220.949ZM592.871 236.5L588.207 220.949L588.184 219.438H589.578L595.074 236.5H592.871ZM592.871 230.184V232.035H584.645V230.184H592.871ZM605.82 231.074H607.977C607.922 232.246 607.684 233.258 607.262 234.109C606.848 234.953 606.242 235.602 605.445 236.055C604.656 236.508 603.668 236.734 602.48 236.734C601.629 236.734 600.859 236.566 600.172 236.23C599.484 235.895 598.895 235.414 598.402 234.789C597.918 234.156 597.547 233.398 597.289 232.516C597.031 231.633 596.902 230.641 596.902 229.539V226.387C596.902 225.293 597.031 224.305 597.289 223.422C597.555 222.539 597.934 221.785 598.426 221.16C598.926 220.527 599.531 220.043 600.242 219.707C600.961 219.371 601.773 219.203 602.68 219.203C603.789 219.203 604.727 219.426 605.492 219.871C606.266 220.309 606.859 220.953 607.273 221.805C607.695 222.648 607.93 223.684 607.977 224.91H605.82C605.766 224.012 605.625 223.281 605.398 222.719C605.172 222.148 604.836 221.73 604.391 221.465C603.953 221.191 603.383 221.055 602.68 221.055C602.055 221.055 601.512 221.18 601.051 221.43C600.598 221.68 600.223 222.039 599.926 222.508C599.637 222.969 599.418 223.527 599.27 224.184C599.129 224.832 599.059 225.559 599.059 226.363V229.539C599.059 230.289 599.117 230.988 599.234 231.637C599.359 232.285 599.555 232.855 599.82 233.348C600.094 233.832 600.449 234.211 600.887 234.484C601.324 234.758 601.855 234.895 602.48 234.895C603.27 234.895 603.895 234.766 604.355 234.508C604.816 234.25 605.156 233.84 605.375 233.277C605.602 232.715 605.75 231.98 605.82 231.074ZM620.152 226.773V228.613H612.758V226.773H620.152ZM613.051 219.438V236.5H610.895V219.438H613.051ZM622.062 219.438V236.5H619.906V219.438H622.062ZM628.027 219.438V236.5H625.871V219.438H628.027ZM642.934 219.438V236.5H640.766L633.934 223.34V236.5H631.777V219.438H633.934L640.801 232.633V219.438H642.934ZM657.348 228.004V234.367C657.16 234.617 656.875 234.93 656.492 235.305C656.117 235.68 655.59 236.012 654.91 236.301C654.23 236.59 653.34 236.734 652.238 236.734C651.355 236.734 650.547 236.586 649.812 236.289C649.086 235.992 648.457 235.547 647.926 234.953C647.402 234.352 646.996 233.605 646.707 232.715C646.418 231.816 646.273 230.766 646.273 229.562V226.363C646.273 225.168 646.395 224.121 646.637 223.223C646.879 222.324 647.238 221.578 647.715 220.984C648.199 220.391 648.797 219.945 649.508 219.648C650.227 219.352 651.062 219.203 652.016 219.203C653.117 219.203 654.055 219.41 654.828 219.824C655.602 220.238 656.199 220.836 656.621 221.617C657.051 222.398 657.293 223.336 657.348 224.43H655.191C655.137 223.727 654.988 223.125 654.746 222.625C654.504 222.117 654.16 221.73 653.715 221.465C653.27 221.191 652.703 221.055 652.016 221.055C651.359 221.055 650.805 221.164 650.352 221.383C649.898 221.602 649.527 221.93 649.238 222.367C648.957 222.805 648.75 223.355 648.617 224.02C648.492 224.684 648.43 225.457 648.43 226.34V229.562C648.43 230.469 648.52 231.258 648.699 231.93C648.879 232.602 649.133 233.156 649.461 233.594C649.797 234.031 650.199 234.359 650.668 234.578C651.137 234.789 651.664 234.895 652.25 234.895C652.914 234.895 653.438 234.824 653.82 234.684C654.203 234.543 654.496 234.383 654.699 234.203C654.91 234.023 655.078 233.879 655.203 233.77V229.832H652.074V228.004H657.348Z" fill="black"/>
<mask id="mask0_1750_2" style="mask-type:luminance" maskUnits="userSpaceOnUse" x="165" y="24" width="86" height="86">
<path fill-rule="evenodd" clip-rule="evenodd" d="M165.5 24.5H250.5V109.5H165.5V24.5Z" fill="white"/>
</mask>
<g mask="url(#mask0_1750_2)">
<mask id="mask1_1750_2" style="mask-type:luminance" maskUnits="userSpaceOnUse" x="165" y="24" width="86" height="86">
<path fill-rule="evenodd" clip-rule="evenodd" d="M165.5 24.5H250.5V109.5H165.5V24.5Z" fill="white"/>
</mask>
<g mask="url(#mask1_1750_2)">
<mask id="mask2_1750_2" style="mask-type:luminance" maskUnits="userSpaceOnUse" x="165" y="24" width="86" height="86">
<path fill-rule="evenodd" clip-rule="evenodd" d="M165.5 24.5H250.5V109.5H165.5V24.5Z" fill="white"/>
</mask>
<g mask="url(#mask2_1750_2)">
<path d="M213.047 66.9995C213.047 69.9335 210.668 72.3125 207.734 72.3125C204.8 72.3125 202.422 69.9335 202.422 66.9995C202.422 64.0655 204.8 61.6875 207.734 61.6875C210.668 61.6875 213.047 64.0655 213.047 66.9995Z" fill="white"/>
<path d="M238.9 49.291C237.395 46.723 234.03 45.483 229.426 45.483C226.504 45.483 223.14 46.015 219.421 46.989C216.853 37.692 212.603 31.582 207.733 31.582C202.952 31.582 198.614 37.603 196.134 46.812C192.593 45.926 189.405 45.395 186.572 45.395C181.968 45.395 178.603 46.634 177.098 49.202C174.619 53.452 177.895 60.27 184.713 67.176C178.16 73.905 175.15 80.457 177.541 84.619C179.046 87.187 182.41 88.426 187.015 88.426C189.671 88.426 192.77 87.983 196.134 87.187C198.702 96.395 202.952 102.416 207.733 102.416C212.515 102.416 216.853 96.395 219.332 87.187C222.874 88.072 226.062 88.603 228.895 88.603C233.499 88.603 236.864 87.364 238.369 84.796C240.759 80.634 237.749 74.082 231.197 67.353C238.192 60.358 241.379 53.541 238.9 49.291ZM229.426 49.025C232.702 49.025 235.093 49.822 235.801 51.062C237.129 53.364 234.739 58.765 228.718 64.785C226.593 62.838 224.202 60.89 221.546 59.03C221.28 56.02 220.838 53.098 220.218 50.353C223.582 49.468 226.77 49.025 229.426 49.025ZM213.577 76.207C211.718 77.27 209.858 78.244 207.999 79.129C206.14 78.244 204.28 77.27 202.421 76.207C200.65 75.145 198.879 74.082 197.285 73.02C197.108 71.072 197.108 69.124 197.108 66.999C197.108 65.051 197.197 63.192 197.285 61.332C199.056 60.093 200.916 58.942 202.952 57.791C204.634 56.817 206.317 55.931 207.999 55.134C209.681 55.931 211.364 56.817 213.046 57.791C214.817 58.853 216.588 59.916 218.181 60.978C218.358 62.926 218.358 64.874 218.358 66.999C218.358 69.213 218.27 71.338 218.093 73.374C216.676 74.348 215.171 75.233 213.577 76.207ZM217.65 77.89C217.384 79.572 217.119 81.254 216.853 82.759C215.348 82.228 213.754 81.697 212.16 80.989C213.223 80.457 214.285 79.838 215.348 79.218C216.145 78.775 216.942 78.332 217.65 77.89ZM203.838 80.989C202.067 81.697 200.384 82.317 198.702 82.848C198.348 81.166 198.082 79.395 197.817 77.535C198.791 78.155 199.676 78.687 200.739 79.306C201.713 79.838 202.775 80.457 203.838 80.989ZM193.655 70.364C192.239 69.301 190.999 68.239 189.848 67.176C190.999 66.114 192.327 65.051 193.655 63.989C193.655 64.963 193.567 65.937 193.567 66.999C193.567 68.15 193.567 69.301 193.655 70.364ZM197.728 56.817C197.994 54.869 198.259 53.009 198.614 51.239C200.296 51.77 202.067 52.478 203.838 53.187C202.952 53.629 201.978 54.16 201.093 54.692C200.03 55.4 198.879 56.108 197.728 56.817ZM212.072 53.187C213.666 52.478 215.259 51.947 216.853 51.416C217.207 53.009 217.473 54.692 217.739 56.463C216.765 55.843 215.879 55.312 214.817 54.692C213.931 54.249 213.046 53.718 212.072 53.187ZM221.812 63.634C223.405 64.874 224.822 66.025 226.15 67.265C224.822 68.416 223.405 69.655 221.812 70.806C221.9 69.567 221.9 68.327 221.9 67.088C221.9 65.848 221.9 64.697 221.812 63.634ZM207.733 35.124C210.39 35.124 213.843 39.817 216.056 47.963C213.489 48.848 210.744 49.91 207.999 51.15C205.077 49.822 202.244 48.671 199.499 47.785C201.713 39.728 205.077 35.124 207.733 35.124ZM180.108 51.062C180.905 49.733 183.207 49.025 186.483 49.025C189.051 49.025 191.973 49.468 195.16 50.265C194.541 53.098 194.098 56.197 193.832 59.384C191.353 61.155 189.14 62.926 187.192 64.785C181.259 58.765 178.78 53.364 180.108 51.062ZM187.015 84.973C183.739 84.973 181.348 84.176 180.64 82.937C179.312 80.634 181.614 75.499 187.28 69.655C189.317 71.426 191.53 73.197 193.921 74.968C194.187 78.067 194.629 81.077 195.249 83.822C192.327 84.619 189.494 84.973 187.015 84.973ZM207.733 98.874C205.077 98.874 201.713 94.27 199.499 86.301C202.244 85.416 205.077 84.353 207.999 83.025C210.744 84.265 213.4 85.327 215.968 86.124C213.754 94.27 210.39 98.874 207.733 98.874ZM235.358 82.937C234.562 84.265 232.259 84.973 228.983 84.973C226.416 84.973 223.405 84.53 220.306 83.733C220.838 81.077 221.28 78.332 221.546 75.322C224.202 73.463 226.593 71.603 228.718 69.655C234.384 75.499 236.687 80.634 235.358 82.937Z" fill="white"/>
</g>
</g>
</g>
<mask id="mask3_1750_2" style="mask-type:luminance" maskUnits="userSpaceOnUse" x="36" y="92" width="83" height="82">
<path fill-rule="evenodd" clip-rule="evenodd" d="M36.5 92.5H118.5V173.5H36.5V92.5Z" fill="white"/>
</mask>
<g mask="url(#mask3_1750_2)">
<mask id="mask4_1750_2" style="mask-type:luminance" maskUnits="userSpaceOnUse" x="36" y="92" width="83" height="82">
<path fill-rule="evenodd" clip-rule="evenodd" d="M36.5 92.5H118.5V173.5H36.5V92.5Z" fill="white"/>
</mask>
<g mask="url(#mask4_1750_2)">
<mask id="mask5_1750_2" style="mask-type:luminance" maskUnits="userSpaceOnUse" x="36" y="92" width="83" height="82">
<path fill-rule="evenodd" clip-rule="evenodd" d="M36.5 92.5H118.5V173.5H36.5V92.5Z" fill="white"/>
</mask>
<g mask="url(#mask5_1750_2)">
<path d="M81.7735 98.4062C81.7735 99.8042 80.6262 100.938 79.2109 100.938C77.7956 100.938 76.6484 99.8042 76.6484 98.4062C76.6484 97.0083 77.7956 95.875 79.2109 95.875C80.6262 95.875 81.7735 97.0083 81.7735 98.4062Z" fill="white"/>
<path d="M86.0469 106C86.0469 107.398 84.8996 108.531 83.4844 108.531C82.0692 108.531 80.9219 107.398 80.9219 106C80.9219 104.602 82.0692 103.469 83.4844 103.469C84.8996 103.469 86.0469 104.602 86.0469 106Z" fill="white"/>
<path d="M76.6485 104.312C76.6485 105.711 75.5012 106.844 74.0859 106.844C72.6706 106.844 71.5234 105.711 71.5234 104.312C71.5234 102.914 72.6706 101.781 74.0859 101.781C75.5012 101.781 76.6485 102.914 76.6485 104.312Z" fill="white"/>
<path d="M79.2084 113.594C79.2084 115.458 77.6787 116.969 75.7917 116.969C73.9047 116.969 72.375 115.458 72.375 113.594C72.375 111.73 73.9047 110.219 75.7917 110.219C77.6787 110.219 79.2084 111.73 79.2084 113.594Z" fill="white"/>
<path d="M94.1579 163.037L84.335 141.1V126.25C84.335 123.212 86.8121 121.947 86.8976 121.862C87.7517 121.441 88.0933 120.428 87.6662 119.584C87.3246 118.994 86.7267 118.656 86.0433 118.656H68.9599C68.2766 118.656 67.6787 118.994 67.337 119.584C66.9099 120.428 67.2516 121.441 68.1058 121.862C68.1058 121.862 70.6683 123.212 70.6683 126.25V141.1L60.8453 163.037C60.162 164.641 60.3328 166.412 61.2725 167.847C62.212 169.281 63.8349 170.125 65.5433 170.125H89.46C91.1684 170.125 92.7913 169.281 93.7309 167.847C94.6705 166.412 94.8413 164.641 94.1579 163.037ZM80.9183 126.25V129.625H74.085V126.25C74.085 124.478 73.5725 123.128 72.9745 122.031H82.1142C81.4308 123.128 80.9183 124.478 80.9183 126.25Z" fill="white"/>
</g>
</g>
</g>
<path fill-rule="evenodd" clip-rule="evenodd" d="M65.426 269.426H101.648V275.227H91.25V301.008C91.25 304.761 92.324 306.637 94.472 306.637C95.704 306.637 97.18 305.921 98.898 304.489L100.574 307.067C97.366 309.817 94.243 311.192 91.207 311.192C88.743 311.192 86.903 310.361 85.685 308.7C84.468 307.038 83.859 304.245 83.859 300.321V275.227H70.668V310.504H62.031V308.399C63.807 301.667 64.695 292.586 64.695 281.157V275.227H63.148C61.114 275.227 59.467 275.556 58.207 276.215C56.946 276.874 55.557 278.192 54.039 280.168L51.375 277.848C53.81 274.439 55.958 272.183 57.82 271.08C59.682 269.978 62.217 269.426 65.426 269.426Z" fill="white"/>
<mask id="mask6_1750_2" style="mask-type:luminance" maskUnits="userSpaceOnUse" x="162" y="315" width="90" height="90">
<path fill-rule="evenodd" clip-rule="evenodd" d="M162.5 315.5H251.5V404.5H162.5V315.5Z" fill="white"/>
</mask>
<g mask="url(#mask6_1750_2)">
<mask id="mask7_1750_2" style="mask-type:luminance" maskUnits="userSpaceOnUse" x="162" y="315" width="90" height="90">
<path fill-rule="evenodd" clip-rule="evenodd" d="M162.5 315.5H251.5V404.5H162.5V315.5Z" fill="white"/>
</mask>
<g mask="url(#mask7_1750_2)">
<mask id="mask8_1750_2" style="mask-type:luminance" maskUnits="userSpaceOnUse" x="162" y="315" width="90" height="90">
<path fill-rule="evenodd" clip-rule="evenodd" d="M162.5 315.5H251.5V404.5H162.5V315.5Z" fill="white"/>
</mask>
<g mask="url(#mask8_1750_2)">
<path d="M235.28 331.723L234.353 323.379L224.155 333.577L224.711 338.398L209.878 353.231C208.58 352.582 207.097 352.119 205.521 352.119C200.422 352.119 196.25 356.291 196.25 361.39C196.25 366.489 200.422 370.66 205.521 370.66C210.62 370.66 214.791 366.489 214.791 361.39C214.791 359.814 214.421 358.423 213.772 357.125L228.605 342.292L233.426 342.848L243.624 332.65L235.28 331.723Z" fill="white"/>
<path d="M236.021 345.444L234.816 346.742L233.054 346.556L231.107 346.278C233.703 350.728 235.279 355.827 235.279 361.39C235.279 377.706 221.929 391.056 205.612 391.056C189.296 391.056 175.946 377.706 175.946 361.39C175.946 345.073 189.296 331.723 205.612 331.723C211.082 331.723 216.274 333.206 220.724 335.895L220.538 334.041L220.26 332.187L221.558 330.889L222.207 330.24C217.201 327.644 211.638 326.16 205.612 326.16C186.144 326.16 170.383 341.921 170.383 361.39C170.383 380.858 186.144 396.619 205.612 396.619C225.081 396.619 240.842 380.858 240.842 361.39C240.842 355.364 239.358 349.801 236.67 344.888L236.021 345.444Z" fill="white"/>
<path d="M221.092 355.086C221.926 357.033 222.297 359.166 222.297 361.391C222.297 370.569 214.787 378.078 205.609 378.078C196.431 378.078 188.922 370.569 188.922 361.391C188.922 352.212 196.431 344.703 205.609 344.703C207.834 344.703 209.967 345.167 211.914 345.908L216.085 341.736C212.933 340.068 209.41 339.141 205.609 339.141C193.372 339.141 183.359 349.153 183.359 361.391C183.359 373.628 193.372 383.641 205.609 383.641C217.847 383.641 227.859 373.628 227.859 361.391C227.859 357.59 226.932 354.067 225.264 350.915L221.092 355.086Z" fill="white"/>
</g>
</g>
</g>
</svg>
